<?xml version="1.0" standalone="no"?>
<!DOCTYPE svg PUBLIC "-//W3C//DTD SVG 20010904//EN"
 "http://www.w3.org/TR/2001/REC-SVG-20010904/DTD/svg10.dtd">
<svg version="1.0" xmlns="http://www.w3.org/2000/svg"
 width="298.000000pt" height="298.000000pt" viewBox="0 0 298.000000 298.000000"
 preserveAspectRatio="xMidYMid meet">

<g transform="translate(0.000000,298.000000) scale(0.100000,-0.100000)"
fill="#000000" stroke="none">
<path d="M2315 1710 c-33 -22 -27 -27 8 -8 12 6 38 15 57 19 l35 7 -35 1 c-20
0 -48 -8 -65 -19z"/>
<path d="M2660 1721 c19 -4 46 -13 60 -20 l25 -12 -24 20 c-15 14 -36 21 -60
20 l-36 -1 35 -7z"/>
<path d="M2360 1689 c-91 -38 -113 -146 -46 -227 13 -15 26 -37 30 -49 4 -13
14 -23 23 -23 8 0 17 -9 20 -20 3 -10 13 -22 24 -25 10 -3 21 -15 24 -26 4
-10 12 -19 20 -19 7 0 20 -11 29 -25 9 -14 24 -25 33 -25 16 0 143 121 143
136 0 5 10 14 22 19 13 6 24 18 26 28 2 11 15 35 28 54 82 121 -74 271 -193
185 -27 -20 -27 -20 -53 0 -32 23 -95 32 -130 17z m94 -13 c44 -18 52 -33 31
-56 -9 -10 -15 -29 -13 -42 4 -30 46 -38 65 -12 12 16 16 17 34 6 28 -18 34
-9 9 13 -20 18 -21 18 -45 -5 -25 -23 -55 -22 -55 3 0 22 84 94 119 102 62 13
151 -59 151 -122 0 -33 -29 -93 -44 -93 -7 0 -25 14 -41 30 -16 17 -33 30 -39
30 -6 0 10 -20 34 -45 42 -42 43 -46 27 -62 -16 -16 -19 -15 -57 22 -22 21
-42 36 -45 34 -2 -3 11 -21 30 -39 19 -19 35 -42 35 -52 0 -29 -40 -22 -79 15
-18 17 -31 26 -27 19 10 -17 -21 -41 -46 -34 -10 2 -18 11 -18 18 0 8 -11 19
-24 23 -13 5 -26 19 -29 30 -6 25 -43 28 -67 6 -16 -15 -20 -13 -44 15 -52 63
-28 163 48 196 40 17 49 17 90 0z m-36 -229 c8 -38 -49 -66 -62 -31 -8 21 22
56 43 52 9 -2 17 -11 19 -21z m49 -43 c3 -9 -3 -24 -15 -36 -23 -24 -52 -18
-52 10 0 38 54 59 67 26z m103 -12 c0 -14 -36 -43 -43 -35 -4 3 0 15 10 25 17
19 33 24 33 10z m-62 -36 c5 -22 -16 -46 -39 -46 -24 0 -25 27 -2 52 19 21 37
19 41 -6z m95 -22 c-6 -17 -25 -18 -41 -2 -9 9 -8 16 5 31 16 17 18 17 29 2 7
-9 10 -23 7 -31z m-45 -28 c4 -20 -22 -46 -45 -46 -22 0 -27 29 -7 51 21 24
47 21 52 -5z"/>
<path d="M2260 1650 c-6 -12 -9 -24 -7 -27 3 -2 11 5 17 17 6 12 9 24 7 27 -3
2 -11 -5 -17 -17z"/>
<path d="M2760 1664 c0 -5 7 -19 15 -30 8 -10 15 -14 15 -8 0 5 -7 19 -15 30
-8 10 -15 14 -15 8z"/>
<path d="M770 1585 c0 -8 5 -15 10 -15 6 0 10 7 10 15 0 8 -4 15 -10 15 -5 0
-10 -7 -10 -15z"/>
<path d="M1666 1591 c-4 -5 -2 -12 3 -15 5 -4 12 -2 15 3 4 5 2 12 -3 15 -5 4
-12 2 -15 -3z"/>
<path d="M220 1495 c0 -57 4 -95 10 -95 6 0 10 20 10 45 l0 45 50 0 50 0 0
-39 c0 -22 5 -43 10 -46 6 -4 10 28 10 89 0 57 -4 96 -10 96 -5 0 -10 -18 -10
-40 l0 -40 -50 0 -50 0 0 40 c0 22 -4 40 -10 40 -6 0 -10 -38 -10 -95z"/>
<path d="M710 1495 c0 -57 4 -95 10 -95 6 0 10 38 10 95 0 57 -4 95 -10 95 -6
0 -10 -38 -10 -95z"/>
<path d="M1220 1495 c0 -57 4 -95 10 -95 6 0 10 20 10 45 l0 45 50 0 50 0 0
-39 c0 -22 5 -43 10 -46 6 -4 10 28 10 89 0 57 -4 96 -10 96 -5 0 -10 -18 -10
-40 l0 -40 -50 0 -50 0 0 40 c0 22 -4 40 -10 40 -6 0 -10 -38 -10 -95z"/>
<path d="M429 1531 c-47 -38 -18 -131 40 -131 23 0 58 26 48 36 -4 4 -13 2
-19 -4 -17 -17 -44 -15 -62 4 -26 26 -18 34 34 34 46 0 50 2 50 24 0 24 -32
56 -56 56 -7 0 -22 -8 -35 -19z m55 -7 c33 -13 17 -34 -24 -34 -45 0 -47 2
-24 24 17 18 24 19 48 10z"/>
<path d="M579 1530 c-27 -22 -22 -25 15 -9 20 9 29 9 41 -1 24 -20 18 -26 -27
-36 -36 -8 -43 -13 -46 -35 -4 -37 22 -56 59 -42 18 7 29 8 29 2 0 -6 5 -7 10
-4 6 3 10 28 10 56 0 36 -5 54 -20 69 -25 25 -42 25 -71 0z m71 -73 c0 -20
-21 -37 -46 -37 -28 0 -39 26 -16 39 24 15 62 13 62 -2z"/>
<path d="M770 1475 c0 -43 4 -75 10 -75 6 0 10 32 10 75 0 43 -4 75 -10 75 -6
0 -10 -32 -10 -75z"/>
<path d="M837 1543 c-11 -10 -8 -131 3 -138 6 -4 10 14 10 48 0 58 15 81 47
75 14 -2 19 -15 21 -58 4 -79 22 -89 22 -13 0 79 -27 111 -70 83 -9 -5 -17 -5
-20 1 -4 5 -9 6 -13 2z"/>
<path d="M1000 1530 c-24 -24 -27 -82 -4 -104 17 -18 59 -21 69 -7 3 5 -9 11
-27 13 -31 3 -33 5 -33 42 0 46 24 68 53 50 13 -9 17 -25 17 -80 l0 -69 -42 1
c-43 1 -56 -9 -27 -20 28 -11 62 -6 78 10 12 12 16 36 16 100 0 49 -4 84 -10
84 -5 0 -10 -5 -10 -10 0 -7 -6 -7 -19 0 -28 14 -38 13 -61 -10z"/>
<path d="M1425 1525 c-14 -13 -25 -36 -25 -50 0 -31 41 -75 69 -75 25 0 61 45
61 77 0 27 -41 73 -65 73 -9 0 -27 -11 -40 -25z m69 -11 c32 -31 12 -94 -29
-94 -30 0 -49 32 -40 68 11 43 41 54 69 26z"/>
<path d="M1567 1544 c-11 -11 -8 -132 3 -139 6 -4 10 13 10 44 0 52 17 81 48
81 11 0 13 3 5 11 -8 8 -17 8 -31 0 -14 -8 -21 -8 -24 0 -2 6 -7 7 -11 3z"/>
<path d="M1673 1475 c0 -44 2 -61 4 -37 2 23 2 59 0 80 -2 20 -4 1 -4 -43z"/>
<path d="M1725 1540 c-4 -6 10 -10 34 -10 23 0 41 -2 41 -5 0 -3 -18 -28 -40
-56 -22 -28 -38 -55 -34 -60 7 -12 91 -12 99 0 3 6 -13 11 -35 13 l-41 3 41
53 c22 30 37 58 34 63 -7 12 -91 11 -99 -1z"/>
<path d="M1885 1525 c-32 -31 -33 -74 -2 -103 13 -12 31 -22 41 -22 26 0 66
46 66 75 0 29 -40 75 -65 75 -9 0 -27 -11 -40 -25z m71 -20 c22 -34 11 -73
-23 -81 -45 -12 -73 55 -37 90 22 23 41 20 60 -9z"/>
<path d="M2027 1544 c-11 -11 -8 -132 3 -139 6 -4 10 14 10 48 0 58 15 81 47
75 14 -2 19 -15 21 -58 5 -82 22 -87 22 -7 0 56 -3 68 -20 77 -24 13 -60 5
-61 -13 0 -7 -4 -4 -8 6 -3 10 -10 15 -14 11z"/>
</g>
</svg>
