<?xml version="1.0" standalone="no"?>
<!DOCTYPE svg PUBLIC "-//W3C//DTD SVG 20010904//EN"
 "http://www.w3.org/TR/2001/REC-SVG-20010904/DTD/svg10.dtd">
<svg version="1.0" xmlns="http://www.w3.org/2000/svg"
 width="500.000000pt" height="500.000000pt" viewBox="0 0 500.000000 500.000000"
 preserveAspectRatio="xMidYMid meet">

<g transform="translate(0.000000,500.000000) scale(0.100000,-0.100000)"
fill="#000000" stroke="none">
<path d="M1470 4243 c-182 -19 -417 -116 -567 -235 -50 -39 -63 -56 -63 -77 0
-58 46 -67 100 -21 162 141 385 226 620 237 69 3 131 10 138 16 19 15 14 54
-10 71 -22 15 -119 19 -218 9z"/>
<path d="M3338 4240 c-21 -13 -24 -63 -5 -77 6 -6 66 -13 132 -17 66 -3 149
-12 185 -20 140 -30 296 -105 421 -203 56 -44 86 -52 107 -31 22 22 13 57 -24
90 -112 102 -298 197 -469 239 -95 23 -321 36 -347 19z"/>
<path d="M1500 3959 c-251 -54 -459 -188 -613 -394 -224 -301 -263 -697 -103
-1048 58 -128 96 -178 276 -362 l117 -120 5 -80 c5 -92 22 -131 82 -193 55
-58 105 -83 185 -90 l66 -7 6 -71 c4 -40 15 -87 27 -110 48 -93 161 -164 262
-164 55 0 54 2 64 -97 12 -125 136 -237 276 -247 l55 -4 7 -61 c13 -116 72
-200 172 -247 39 -18 68 -24 127 -24 106 0 154 26 268 146 101 105 129 152
138 225 5 41 9 49 27 49 26 0 106 24 138 41 87 47 156 151 160 241 0 26 4 51
7 56 3 5 32 12 64 16 149 17 257 130 273 285 l7 61 38 0 c68 0 149 37 205 95
63 64 86 126 85 227 l-1 71 78 82 c120 127 192 246 247 408 36 107 49 220 42
367 -12 258 -110 477 -299 668 -136 138 -282 221 -472 270 -87 23 -121 26
-251 26 -131 0 -163 -4 -250 -27 -172 -46 -320 -129 -456 -254 l-71 -65 -71
69 c-191 184 -407 272 -682 279 -114 3 -158 0 -235 -17z m449 -108 c93 -27
202 -77 278 -128 65 -43 183 -150 183 -166 0 -6 -56 -68 -125 -138 -147 -149
-180 -205 -179 -304 1 -154 118 -268 274 -268 106 0 145 23 291 173 70 72 130
130 135 130 4 0 60 -52 124 -115 64 -63 123 -115 132 -115 28 0 50 25 46 53
-4 32 -272 307 -300 307 -9 0 -79 -62 -155 -138 -158 -159 -194 -188 -245
-197 -116 -22 -229 101 -198 216 13 49 31 69 255 297 196 200 270 261 391 321
414 207 900 81 1176 -304 96 -134 147 -290 155 -475 8 -180 -23 -324 -102
-479 -30 -60 -130 -193 -183 -245 l-40 -39 -261 259 c-269 265 -278 274 -298
274 -18 0 -43 -29 -43 -51 0 -13 98 -119 267 -290 147 -148 273 -280 280 -292
19 -34 16 -122 -6 -165 -46 -90 -151 -134 -238 -101 -15 6 -139 120 -274 255
-165 164 -252 244 -266 244 -23 0 -53 -24 -53 -43 0 -21 13 -34 258 -281 205
-206 242 -248 251 -284 38 -139 -92 -274 -236 -247 -32 6 -73 42 -289 256
-145 144 -258 249 -269 249 -22 0 -55 -28 -55 -47 0 -8 20 -36 45 -62 25 -26
45 -54 45 -62 0 -8 -51 -65 -113 -127 l-114 -114 -47 31 c-49 31 -121 51 -181
51 -35 0 -35 1 -35 43 0 83 -27 145 -89 208 -63 62 -125 89 -208 89 l-43 0 0
47 c0 163 -135 303 -293 303 -89 0 -152 -34 -263 -142 -55 -54 -105 -98 -110
-98 -15 0 -214 207 -261 270 -120 161 -173 329 -173 546 0 106 5 150 24 225
43 168 118 302 239 424 133 133 283 215 482 260 91 21 319 13 414 -14z m-246
-1607 c59 -41 90 -104 84 -170 -7 -68 -35 -111 -140 -211 -99 -95 -136 -111
-214 -92 -69 18 -139 90 -148 153 -15 98 5 137 132 257 89 83 123 101 191 96
38 -3 64 -12 95 -33z m344 -350 c73 -58 101 -152 68 -231 -17 -40 -175 -207
-217 -229 -62 -32 -172 -9 -225 48 -51 54 -67 149 -38 213 21 42 182 200 226
220 55 25 141 15 186 -21z m806 -165 l41 -40 -152 -152 c-83 -83 -154 -148
-157 -145 -3 3 -11 36 -17 73 l-11 66 119 120 c65 65 123 119 128 119 4 0 27
-18 49 -41z m189 -186 c85 -83 98 -106 98 -178 0 -91 -36 -146 -120 -184 -63
-29 -97 -27 -123 6 -52 64 -117 121 -151 133 -20 6 -36 17 -36 23 0 11 247
267 257 267 3 0 36 -30 75 -67z m-648 8 c76 -52 103 -144 67 -225 -25 -57
-147 -187 -210 -224 -51 -30 -120 -34 -168 -8 -98 50 -145 173 -100 261 16 31
158 175 198 200 68 44 146 42 213 -4z m350 -344 c70 -54 95 -149 61 -231 -18
-42 -136 -170 -196 -212 -35 -24 -50 -28 -100 -27 -88 3 -150 45 -183 125 -38
89 -14 147 106 264 117 115 120 116 204 112 59 -3 77 -8 108 -31z"/>
<path d="M666 3744 c-26 -25 -65 -97 -101 -186 -49 -117 -45 -168 11 -168 24
0 54 33 54 59 0 8 28 71 61 139 53 107 60 127 50 148 -12 28 -51 32 -75 8z"/>
<path d="M4292 3748 c-20 -20 -14 -47 27 -122 21 -39 49 -100 61 -136 30 -85
50 -107 87 -94 50 17 39 82 -38 237 -58 116 -100 152 -137 115z"/>
</g>
</svg>
